<svg height="96" viewBox="0 0 96 96" width="96" xmlns="http://www.w3.org/2000/svg">
    <path d="m54.4674046 14.0137979 36.956194 62.9353006c2.2372511 3.8099722.9623087 8.7122153-2.8476634 10.9494664-1.2281795.7211983-2.6266292 1.1014351-4.0509015 1.1014351h-73.0500674c-4.41827798 0-7.99999998-3.581722-7.99999998-8 0-1.4242724.38023675-2.8227221 1.10143512-4.0509015l36.95619396-62.9353006c2.0974229-3.5718489 6.6932758-4.76710737 10.2651247-2.6696845 1.1029868.6476842 2.0220003 1.5666977 2.6696845 2.6696845zm-8.377872 15.4862021c-.0294038 0-.0588061.0004323-.0881972.0012967-1.656138.04871-2.959216 1.4307624-2.9105061 3.0869005l.8235294 28c.0477003 1.6218087 1.3761932 2.9118028 2.9987033 2.9118028h2.173876c1.6225101 0 2.951003-1.2899941 2.9987033-2.9118028l.8235294-28c.0008644-.0293912.0012967-.0587934.0012967-.0881972 0-1.6568542-1.3431457-3-3-3zm1.9104674 49c2.7614237 0 5-2.2385763 5-5s-2.2385763-5-5-5-5 2.2385763-5 5 2.2385763 5 5 5z" fill="#161513" fill-rule="evenodd" />
</svg>